<mxfile host="65bd71144e">
    <diagram id="qMWWAn8aS_qxeieZqOiH" name="Страница 1">
        <mxGraphModel dx="1500" dy="886" grid="1" gridSize="10" guides="1" tooltips="1" connect="1" arrows="1" fold="1" page="1" pageScale="1" pageWidth="827" pageHeight="1169" math="0" shadow="0">
            <root>
                <mxCell id="0"/>
                <mxCell id="1" parent="0"/>
                <mxCell id="2" value="&lt;u&gt;Иерархические базы данных&lt;/u&gt;" style="text;html=1;align=center;verticalAlign=middle;resizable=0;points=[];autosize=1;strokeColor=none;fillColor=none;" vertex="1" parent="1">
                    <mxGeometry x="310" y="40" width="180" height="20" as="geometry"/>
                </mxCell>
                <mxCell id="3" value="1. Использование для хранения данных БД с иерархической структурой, определяет единственный сценарий ее использования.&lt;br&gt;&lt;br&gt;2. Для использования данных такой БД не по сценарию, необходимо структуру данных изменить, в соответствии с новой задачей.&lt;br&gt;&lt;br&gt;3. Классическим примером использования БД с иерархической структурой, является организация карточных каталогов в билиотеке, &lt;br&gt;где каждая&amp;nbsp;книга имеет карточку.&lt;br&gt;&lt;br&gt;4. Каждый такой каталог подразумевает для поиска применение одного, конкретного сценария. В зависимости от сценария поиска&lt;br&gt;организуются способы группировки карточек (каталоги): алфавитный, систематический, предметный." style="text;html=1;align=left;verticalAlign=middle;resizable=0;points=[];autosize=1;strokeColor=none;fillColor=none;" vertex="1" parent="1">
                    <mxGeometry x="39" y="65" width="760" height="130" as="geometry"/>
                </mxCell>
                <mxCell id="4" value="Задание 1." style="text;html=1;align=center;verticalAlign=middle;resizable=0;points=[];autosize=1;strokeColor=none;fillColor=none;" vertex="1" parent="1">
                    <mxGeometry x="310" y="220" width="80" height="20" as="geometry"/>
                </mxCell>
                <mxCell id="5" value="Попробуйте написать иерархическую структуру, которая позволит из всего набора картин, удобно находить те картины, которые&lt;br&gt;были написаны во второй половине 19-го века.&amp;nbsp;" style="text;html=1;align=left;verticalAlign=middle;resizable=0;points=[];autosize=1;strokeColor=none;fillColor=none;" vertex="1" parent="1">
                    <mxGeometry x="39" y="250" width="730" height="30" as="geometry"/>
                </mxCell>
                <mxCell id="6" value="Решение:" style="text;html=1;align=center;verticalAlign=middle;resizable=0;points=[];autosize=1;strokeColor=none;fillColor=none;" vertex="1" parent="1">
                    <mxGeometry x="305" y="300" width="70" height="20" as="geometry"/>
                </mxCell>
                <mxCell id="7" value="Очевидно, что верхним уровнем иерархии в таком указателе будут являться даты написания картин. А весь каталог будет охватывать&lt;br&gt;какой-либо временной промежуток.&amp;nbsp;" style="text;html=1;align=left;verticalAlign=middle;resizable=0;points=[];autosize=1;strokeColor=none;fillColor=none;" vertex="1" parent="1">
                    <mxGeometry x="39" y="330" width="770" height="30" as="geometry"/>
                </mxCell>
                <mxCell id="10" value="" style="edgeStyle=none;html=1;" edge="1" parent="1" source="8" target="9">
                    <mxGeometry relative="1" as="geometry"/>
                </mxCell>
                <mxCell id="12" value="" style="edgeStyle=none;html=1;" edge="1" parent="1" source="8" target="11">
                    <mxGeometry relative="1" as="geometry"/>
                </mxCell>
                <mxCell id="8" value="Каталог картин написанных в 19-м веке" style="rounded=1;whiteSpace=wrap;html=1;" vertex="1" parent="1">
                    <mxGeometry x="355" y="400" width="150" height="40" as="geometry"/>
                </mxCell>
                <mxCell id="14" value="" style="edgeStyle=none;html=1;" edge="1" parent="1" source="9" target="13">
                    <mxGeometry relative="1" as="geometry"/>
                </mxCell>
                <mxCell id="17" style="edgeStyle=none;html=1;exitX=0.25;exitY=1;exitDx=0;exitDy=0;entryX=0.643;entryY=0.008;entryDx=0;entryDy=0;entryPerimeter=0;" edge="1" parent="1" source="9" target="15">
                    <mxGeometry relative="1" as="geometry"/>
                </mxCell>
                <mxCell id="18" style="edgeStyle=none;html=1;exitX=0.75;exitY=1;exitDx=0;exitDy=0;entryX=0.5;entryY=0;entryDx=0;entryDy=0;" edge="1" parent="1" source="9" target="16">
                    <mxGeometry relative="1" as="geometry"/>
                </mxCell>
                <mxCell id="9" value="картины написанные в 1-й половине 19-го века" style="whiteSpace=wrap;html=1;rounded=1;" vertex="1" parent="1">
                    <mxGeometry x="175" y="450" width="120" height="60" as="geometry"/>
                </mxCell>
                <mxCell id="30" style="edgeStyle=none;html=1;exitX=0.5;exitY=1;exitDx=0;exitDy=0;entryX=0.75;entryY=0;entryDx=0;entryDy=0;" edge="1" parent="1" source="11" target="27">
                    <mxGeometry relative="1" as="geometry"/>
                </mxCell>
                <mxCell id="11" value="&lt;span&gt;картины написанные во 2-й половине 19-го века&lt;/span&gt;" style="whiteSpace=wrap;html=1;rounded=1;" vertex="1" parent="1">
                    <mxGeometry x="555" y="450" width="120" height="60" as="geometry"/>
                </mxCell>
                <mxCell id="13" value="портреты" style="whiteSpace=wrap;html=1;rounded=1;" vertex="1" parent="1">
                    <mxGeometry x="175" y="530" width="70" height="20" as="geometry"/>
                </mxCell>
                <mxCell id="15" value="пейзажи" style="whiteSpace=wrap;html=1;rounded=1;" vertex="1" parent="1">
                    <mxGeometry x="85" y="530" width="70" height="20" as="geometry"/>
                </mxCell>
                <mxCell id="16" value="натюрморты" style="whiteSpace=wrap;html=1;rounded=1;" vertex="1" parent="1">
                    <mxGeometry x="265" y="530" width="70" height="20" as="geometry"/>
                </mxCell>
                <mxCell id="25" style="edgeStyle=none;html=1;exitX=0.25;exitY=1;exitDx=0;exitDy=0;entryX=0.643;entryY=0.008;entryDx=0;entryDy=0;entryPerimeter=0;" edge="1" target="28" parent="1">
                    <mxGeometry relative="1" as="geometry">
                        <mxPoint x="585" y="510" as="sourcePoint"/>
                    </mxGeometry>
                </mxCell>
                <mxCell id="26" style="edgeStyle=none;html=1;exitX=0.75;exitY=1;exitDx=0;exitDy=0;entryX=0.5;entryY=0;entryDx=0;entryDy=0;" edge="1" target="29" parent="1">
                    <mxGeometry relative="1" as="geometry">
                        <mxPoint x="645" y="510" as="sourcePoint"/>
                    </mxGeometry>
                </mxCell>
                <mxCell id="27" value="портреты" style="whiteSpace=wrap;html=1;rounded=1;" vertex="1" parent="1">
                    <mxGeometry x="555" y="530" width="70" height="20" as="geometry"/>
                </mxCell>
                <mxCell id="28" value="пейзажи" style="whiteSpace=wrap;html=1;rounded=1;" vertex="1" parent="1">
                    <mxGeometry x="465" y="530" width="70" height="20" as="geometry"/>
                </mxCell>
                <mxCell id="29" value="натюрморты" style="whiteSpace=wrap;html=1;rounded=1;" vertex="1" parent="1">
                    <mxGeometry x="645" y="530" width="70" height="20" as="geometry"/>
                </mxCell>
                <mxCell id="31" value="&lt;ul&gt;&lt;li&gt;&lt;a href=&quot;https://ru.wikipedia.org/wiki/%D0%98%D0%B5%D1%80%D0%B0%D1%80%D1%85%D0%B8%D1%87%D0%B5%D1%81%D0%BA%D0%B0%D1%8F_%D0%A1%D0%A3%D0%91%D0%94&quot; class=&quot;mw-redirect&quot; title=&quot;Иерархическая СУБД&quot;&gt;Иерархические&lt;/a&gt;&lt;/li&gt;&lt;li&gt;&lt;a href=&quot;https://ru.wikipedia.org/wiki/%D0%A1%D0%B5%D1%82%D0%B5%D0%B2%D0%B0%D1%8F_%D0%A1%D0%A3%D0%91%D0%94&quot; class=&quot;mw-redirect&quot; title=&quot;Сетевая СУБД&quot;&gt;Сетевые&lt;/a&gt;&lt;/li&gt;&lt;li&gt;&lt;a href=&quot;https://ru.wikipedia.org/wiki/%D0%A0%D0%B5%D0%BB%D1%8F%D1%86%D0%B8%D0%BE%D0%BD%D0%BD%D0%B0%D1%8F_%D0%A1%D0%A3%D0%91%D0%94&quot; title=&quot;Реляционная СУБД&quot;&gt;Реляционные&lt;/a&gt;&lt;/li&gt;&lt;li&gt;&lt;a href=&quot;https://ru.wikipedia.org/wiki/%D0%9E%D0%B1%D1%8A%D0%B5%D0%BA%D1%82%D0%BD%D0%BE-%D0%BE%D1%80%D0%B8%D0%B5%D0%BD%D1%82%D0%B8%D1%80%D0%BE%D0%B2%D0%B0%D0%BD%D0%BD%D0%B0%D1%8F_%D0%A1%D0%A3%D0%91%D0%94&quot; title=&quot;Объектно-ориентированная СУБД&quot;&gt;Объектно-ориентированные&lt;/a&gt;&lt;/li&gt;&lt;li&gt;&lt;a href=&quot;https://ru.wikipedia.org/wiki/%D0%9E%D0%B1%D1%8A%D0%B5%D0%BA%D1%82%D0%BD%D0%BE-%D1%80%D0%B5%D0%BB%D1%8F%D1%86%D0%B8%D0%BE%D0%BD%D0%BD%D0%B0%D1%8F_%D0%A1%D0%A3%D0%91%D0%94&quot; title=&quot;Объектно-реляционная СУБД&quot;&gt;Объектно-реляционные&lt;/a&gt;&lt;/li&gt;&lt;/ul&gt;" style="text;html=1;align=left;verticalAlign=middle;resizable=0;points=[];autosize=1;strokeColor=none;fillColor=none;" vertex="1" parent="1">
                    <mxGeometry x="75" y="630" width="210" height="130" as="geometry"/>
                </mxCell>
                <mxCell id="32" value="&lt;u&gt;Способы организации данных&lt;/u&gt;" style="text;html=1;align=left;verticalAlign=middle;resizable=0;points=[];autosize=1;strokeColor=none;fillColor=none;" vertex="1" parent="1">
                    <mxGeometry x="100" y="620" width="180" height="20" as="geometry"/>
                </mxCell>
            </root>
        </mxGraphModel>
    </diagram>
</mxfile>